PathFileType	4	(x/y/z)	S01_P20_T04
DataRate	CameraRate	NumFrames	NumMarkers	Units	OrigDataRate	OrigDataStartFrame	OrigNumFrames
240	240	8	51	mm	240	153	406
Frame#	Time	Sternum			R.Acromium			L.Acromium			Top.Head			R.ASIS			L.ASIS			R.PSIS			L.PSIS			R.Great.Tro			L.Great.Tro			R.Iliac.Crest			L.Iliac.Crest			V.Sacral			R.Thigh.Upper.Post			R.Thigh.Lower.Ant			R.Thigh.Lower.Post			R.Thigh.Upper.Ant			R.Knee.Lat			R.Knee.Med			R.Shank.Upper.Post			R.Shank.Lower.Ant			R.Shank.Lower.Post			R.Shank.Upper.Ant			R.Ankle.Lat			R.Ankle.Med			R.Heel.Upper			R.Heel.Med			R.Heel.Lat			R.Toe.Lat			R.Toe.Med			R.Toe.Tip			L.Thigh.Upper.Post			L.Thigh.Lower.Ant			L.Thigh.Lower.Post			L.Thigh.Upper.Ant			L.Knee.Lat			L.Knee.Med			L.Shank.Upper.Post			L.Shank.Lower.Ant			L.Shank.Lower.Post			L.Shank.Upper.Ant			L.Ankle.Lat			L.Ankle.Med			L.Heel.Upper			L.Heel.Med			L.Heel.Lat			L.Toe.Lat			L.Toe.Med			L.Toe.Tip			Cervical.Spine			Back			
		X1	Y1	Z1	X2	Y2	Z2	X3	Y3	Z3	X4	Y4	Z4	X5	Y5	Z5	X6	Y6	Z6	X7	Y7	Z7	X8	Y8	Z8	X9	Y9	Z9	X10	Y10	Z10	X11	Y11	Z11	X12	Y12	Z12	X13	Y13	Z13	X14	Y14	Z14	X15	Y15	Z15	X16	Y16	Z16	X17	Y17	Z17	X18	Y18	Z18	X19	Y19	Z19	X20	Y20	Z20	X21	Y21	Z21	X22	Y22	Z22	X23	Y23	Z23	X24	Y24	Z24	X25	Y25	Z25	X26	Y26	Z26	X27	Y27	Z27	X28	Y28	Z28	X29	Y29	Z29	X30	Y30	Z30	X31	Y31	Z31	X32	Y32	Z32	X33	Y33	Z33	X34	Y34	Z34	X35	Y35	Z35	X36	Y36	Z36	X37	Y37	Z37	X38	Y38	Z38	X39	Y39	Z39	X40	Y40	Z40	X41	Y41	Z41	X42	Y42	Z42	X43	Y43	Z43	X44	Y44	Z44	X45	Y45	Z45	X46	Y46	Z46	X47	Y47	Z47	X48	Y48	Z48	X49	Y49	Z49	X50	Y50	Z50	X51	Y51	Z51	

153	0.63333	-568.29	1253.5	288.6	-693.37	1503.3	465.03	-707.22	1518.7	134.33	-718.58	1831	300.01	-615.46	1007	437.58	-618.04	996.28	171.31	-855.98	1043.6	350.68	-859.49	1041.2	248.11	-686.14	957.22	521.53	-731.7	946.7	96.415	-704.19	1103.2	504.17	-726.4	1079	99.332	-870.1	1005.8	298.77	-593.44	665.39	492.07	-505.28	623.48	456.46	-562.28	584.92	465.51	-533.83	706.18	482.48	-516.49	533.78	454.41	-523.44	538.76	313.34	-549.06	368.04	476.16	-484.08	292.53	427.65	-547.25	298.06	463.72	-489.29	363.63	446.65	-535.38	101.04	423.36	-504.9	108.07	329.97	-602.13	70.071	362.86	-585.66	40.697	334.2	-591.87	39.849	398.65	-402.84	38.959	458.4	-369.73	44.623	335.15	-309	69.299	389.45	-790.26	671.9	114.69	-713.09	593.67	96.694	-787.84	581.08	125.18	-724.58	688.59	89.036	-756.62	495.07	105.53	-706.29	479.85	242.11	-879.9	423.26	97.523	-888.73	314.14	114.78	-929.78	363.15	103.47	-839.22	372.68	104.55	-1074.3	199.88	147.07	-1038.5	197.11	239.16	-1144.1	223.55	196.83	-1148.4	201.76	232.82	-1156.8	196.05	171.95	-1016.8	52.243	136.2	-982.55	60.593	257.3	-929.76	35.592	203.13	-790.08	1568.5	304.39	-877.18	1252.1	317.22
154	0.6375	-562.46	1253.9	289.25	-687.3	1503.5	466.01	-701.71	1519.3	135.38	-712.98	1831.3	301.24	-609.36	1007.4	438.05	-612.2	996.68	171.89	-849.94	1043.8	351.19	-853.55	1041.1	248.64	-680.06	957.69	521.99	-725.56	946.62	96.926	-697.94	1103.6	504.69	-720.36	1079.6	100.12	-864.08	1005.9	299.39	-587.77	665.46	492.58	-499.7	623.35	456.97	-556.82	584.93	465.93	-528.07	706.1	483.11	-511.2	533.58	454.73	-517.98	538.77	313.74	-545.31	368.11	476.45	-481.2	291.96	427.74	-544.23	298.13	463.99	-485.64	363.1	446.83	-534.76	101	423.33	-504.33	107.86	329.91	-601.85	70.388	362.94	-585.58	40.93	334.26	-591.77	40.096	398.71	-402.58	38.33	458.43	-369.46	43.529	335.06	-308.45	67.671	389.32	-781.16	670.95	114.57	-703.17	593.58	95.637	-777.55	580.09	124.69	-715.9	688.45	88.472	-745.24	494.83	104.43	-693.74	479.24	240.77	-868.73	425	96.659	-879.31	315.99	113.9	-919.59	365.69	102.79	-828.89	373.75	103.59	-1066.3	205.15	146.41	-1030.6	201.4	238.36	-1135.1	231.31	196.22	-1140.2	209.89	232.37	-1148.9	204.15	171.54	-1014.3	54.971	135.91	-979.24	62.632	256.72	-927.91	35.005	202.44	-784.33	1568.7	305.61	-871.27	1252.3	318.17
155	0.64167	-556.67	1254.4	289.89	-681.24	1503.8	466.95	-696.19	1519.9	136.41	-707.38	1831.7	302.46	-603.3	1007.9	438.53	-606.4	997.11	172.45	-843.95	1044.1	351.68	-847.65	1041.1	249.14	-674.06	958.21	522.44	-719.47	946.6	97.417	-691.76	1104.1	505.18	-714.38	1080.3	100.88	-858.1	1006	299.98	-582.28	665.53	493.08	-494.29	623.18	457.51	-551.55	584.93	466.35	-522.45	705.98	483.74	-506.12	533.34	455.07	-512.69	538.75	314.15	-541.79	368.18	476.71	-478.49	291.42	427.86	-541.41	298.19	464.24	-482.18	362.58	447.03	-534.22	100.98	423.29	-503.83	107.68	329.87	-601.6	70.658	363	-585.51	41.133	334.33	-591.68	40.312	398.76	-402.36	37.819	458.48	-369.23	42.614	335	-307.97	66.273	389.21	-772.02	670.08	114.45	-693.21	593.59	94.615	-767.21	579.2	124.22	-707.18	688.4	87.912	-733.77	494.7	103.36	-681.14	478.79	239.49	-857.39	426.78	95.813	-869.67	317.91	113.08	-909.19	368.27	102.13	-818.35	374.9	102.67	-1058.1	210.49	145.8	-1022.3	205.71	237.61	-1125.8	239	195.68	-1131.7	217.93	231.97	-1140.6	212.23	171.17	-1011.5	57.947	135.56	-975.54	64.781	256.05	-925.73	34.555	201.65	-778.59	1569	306.8	-865.36	1252.6	319.09
156	0.64583	-550.92	1254.9	290.49	-675.17	1504.1	467.87	-690.68	1520.6	137.41	-701.78	1832	303.67	-597.28	1008.4	439	-600.65	997.57	172.99	-838.01	1044.4	352.14	-841.78	1041.2	249.61	-668.14	958.77	522.88	-713.41	946.63	97.889	-685.65	1104.6	505.65	-708.46	1080.9	101.63	-852.16	1006.2	300.55	-576.95	665.58	493.57	-489.06	622.97	458.05	-546.48	584.9	466.78	-516.99	705.83	484.39	-501.26	533.07	455.42	-507.57	538.71	314.57	-538.49	368.25	476.94	-475.95	290.88	428.01	-538.79	298.26	464.46	-478.93	362.06	447.26	-533.76	100.96	423.25	-503.39	107.54	329.82	-601.39	70.884	363.07	-585.44	41.306	334.38	-591.61	40.498	398.81	-402.18	37.412	458.53	-369.04	41.861	334.95	-307.58	65.086	389.14	-762.85	669.29	114.33	-683.23	593.69	93.636	-756.83	578.4	123.79	-698.45	688.42	87.364	-722.22	494.68	102.33	-668.52	478.52	238.3	-845.9	428.61	94.994	-859.81	319.88	112.32	-898.61	370.88	101.51	-807.65	376.13	101.81	-1049.6	215.85	145.25	-1013.8	210.04	236.92	-1116.1	246.58	195.21	-1122.8	225.85	231.63	-1132	220.23	170.86	-1008.2	61.161	135.15	-971.4	67.03	255.3	-923.18	34.266	200.77	-772.86	1569.4	307.97	-859.46	1253	319.97
157	0.65	-545.22	1255.5	291.05	-669.12	1504.5	468.74	-685.18	1521.3	138.39	-696.17	1832.5	304.88	-591.3	1009	439.47	-594.93	998.06	173.51	-832.11	1044.8	352.58	-835.97	1041.3	250.06	-662.29	959.37	523.3	-707.39	946.72	98.339	-679.61	1105.1	506.09	-702.6	1081.6	102.35	-846.27	1006.4	301.08	-571.78	665.63	494.04	-484.01	622.71	458.61	-541.6	584.86	467.21	-511.68	705.65	485.03	-496.62	532.78	455.79	-502.64	538.63	315	-535.39	368.31	477.14	-473.58	290.36	428.18	-536.35	298.33	464.66	-475.87	361.54	447.5	-533.36	100.94	423.21	-503.01	107.42	329.77	-601.22	71.071	363.12	-585.39	41.452	334.43	-591.54	40.658	398.86	-402.02	37.095	458.6	-368.89	41.25	334.91	-307.25	64.089	389.08	-753.67	668.6	114.23	-673.25	593.9	92.707	-746.41	577.72	123.41	-689.69	688.53	86.835	-710.63	494.79	101.35	-655.91	478.44	237.21	-834.3	430.47	94.212	-849.76	321.92	111.64	-887.85	373.5	100.92	-796.81	377.44	101.02	-1040.8	221.22	144.77	-1005	214.36	236.3	-1106.2	254	194.85	-1113.6	233.58	231.37	-1123	228.11	170.62	-1004.5	64.599	134.67	-966.81	69.365	254.45	-920.22	34.165	199.78	-767.14	1569.8	309.12	-853.56	1253.4	320.83
158	0.65417	-539.55	1256.1	291.58	-663.06	1504.9	469.58	-679.69	1522	139.34	-690.56	1832.9	306.07	-585.35	1009.6	439.92	-589.25	998.57	174	-826.26	1045.2	353	-830.19	1041.4	250.5	-656.5	960	523.72	-701.41	946.86	98.769	-673.64	1105.7	506.52	-696.81	1082.3	103.04	-840.41	1006.6	301.6	-566.78	665.66	494.48	-479.14	622.42	459.15	-536.91	584.8	467.62	-506.52	705.44	485.66	-492.19	532.47	456.15	-497.92	538.52	315.43	-532.5	368.36	477.31	-471.36	289.86	428.37	-534.09	298.39	464.83	-473	361.04	447.76	-533.01	100.94	423.16	-502.68	107.32	329.73	-601.08	71.224	363.16	-585.34	41.573	334.47	-591.48	40.794	398.89	-401.9	36.854	458.67	-368.76	40.764	334.88	-306.98	63.261	389.05	-744.47	668.02	114.15	-663.26	594.22	91.833	-735.98	577.16	123.08	-680.93	688.73	86.329	-699.01	495.04	100.42	-643.34	478.56	236.22	-822.6	432.38	93.474	-839.53	324.02	111.04	-876.96	376.14	100.37	-785.83	378.83	100.3	-1031.8	226.56	144.37	-996	218.64	235.74	-1096	261.23	194.6	-1104	241.07	231.22	-1113.8	235.81	170.49	-1000.3	68.238	134.13	-961.72	71.773	253.51	-916.78	34.276	198.68	-761.43	1570.2	310.23	-847.67	1253.9	321.65
159	0.65833	-533.92	1256.6	292.08	-657.02	1505.3	470.39	-674.2	1522.8	140.25	-684.94	1833.4	307.26	-579.45	1010.2	440.36	-583.61	999.12	174.47	-820.45	1045.7	353.41	-824.45	1041.6	250.92	-650.75	960.65	524.12	-695.47	947.07	99.177	-667.74	1106.2	506.94	-691.08	1083	103.69	-834.59	1006.9	302.09	-561.94	665.7	494.89	-474.43	622.09	459.68	-532.41	584.73	468.03	-501.5	705.2	486.27	-487.96	532.13	456.51	-493.4	538.38	315.85	-529.78	368.4	477.46	-469.29	289.36	428.57	-531.98	298.44	464.98	-470.3	360.54	448.02	-532.72	100.94	423.11	-502.39	107.24	329.68	-600.96	71.347	363.2	-585.31	41.672	334.51	-591.43	40.909	398.92	-401.8	36.676	458.74	-368.66	40.386	334.86	-306.76	62.581	389.03	-735.26	667.54	114.1	-653.3	594.67	91.018	-725.53	576.74	122.81	-672.14	689.03	85.852	-687.38	495.43	99.54	-630.84	478.89	235.33	-810.84	434.32	92.788	-829.15	326.16	110.52	-865.94	378.79	99.878	-774.76	380.31	99.653	-1022.6	231.85	144.06	-986.72	222.86	235.27	-1085.7	268.2	194.48	-1094.3	248.26	231.18	-1104.3	243.28	170.46	-995.62	72.053	133.51	-956.12	74.24	252.47	-912.83	34.621	197.45	-755.73	1570.7	311.31	-841.79	1254.4	322.44
160	0.6625	-528.32	1257.2	292.52	-650.98	1505.7	471.15	-668.72	1523.6	141.14	-679.31	1834	308.42	-573.58	1010.9	440.79	-578	999.69	174.91	-814.67	1046.2	353.81	-818.74	1041.9	251.34	-645.04	961.33	524.51	-689.56	947.35	99.565	-661.9	1106.8	507.36	-685.41	1083.7	104.31	-828.81	1007.3	302.57	-557.25	665.74	495.27	-469.89	621.73	460.2	-528.09	584.65	468.41	-496.61	704.95	486.84	-483.93	531.78	456.86	-489.09	538.22	316.25	-527.24	368.43	477.58	-467.35	288.89	428.78	-530.02	298.49	465.11	-467.76	360.05	448.28	-532.47	100.94	423.06	-502.13	107.18	329.63	-600.86	71.445	363.23	-585.27	41.752	334.54	-591.39	41.006	398.95	-401.71	36.55	458.82	-368.57	40.101	334.84	-306.58	62.028	389.03	-726.04	667.19	114.09	-643.36	595.24	90.265	-715.08	576.46	122.61	-663.35	689.42	85.407	-675.76	495.97	98.723	-618.43	479.43	234.57	-799.04	436.31	92.162	-818.63	328.35	110.08	-854.84	381.44	99.439	-763.6	381.87	99.086	-1013.2	237.07	143.84	-977.2	226.99	234.87	-1075.1	274.88	194.52	-1084.2	255.12	231.28	-1094.6	250.47	170.56	-990.35	76.011	132.81	-949.97	76.749	251.34	-908.3	35.216	196.08	-750.04	1571.3	312.36	-835.92	1255	323.21
